<svg width="1653" height="2908" viewBox="0 0 1653 2908" fill="none" xmlns="http://www.w3.org/2000/svg">
<path fill-rule="evenodd" clip-rule="evenodd" d="M0 0H1653V2908H0V0ZM103 563H792.691V1606.82H103V563ZM1550 563H860.309V1606.82H1550V563ZM103 1657.35H792.691V2701.17H103V1657.35ZM1550 1657.35H860.309V2701.17H1550V1657.35Z" fill="#EE7A3A"/>
<g filter="url(#filter0_d_37_774)">
<path d="M1193.86 162.705H458.068V402.364H1193.86V162.705Z" fill="white"/>
</g>
<path fill-rule="evenodd" clip-rule="evenodd" d="M454.703 162.635C454.703 160.816 456.179 159.341 458 159.341H1193.93C1195.75 159.341 1197.22 160.816 1197.22 162.635V402.433C1197.22 404.252 1195.75 405.727 1193.93 405.727H458C456.179 405.727 454.703 404.252 454.703 402.433V162.635ZM461.297 165.929V399.139H1190.63V165.929H461.297Z" fill="#ED7A3A"/>
<path d="M457.227 183.728C469.302 183.728 479.09 173.939 479.09 161.864C479.09 149.789 469.302 140 457.227 140C445.152 140 435.363 149.789 435.363 161.864C435.363 173.939 445.152 183.728 457.227 183.728Z" fill="white"/>
<path fill-rule="evenodd" clip-rule="evenodd" d="M457.227 143.24C446.941 143.24 438.603 151.578 438.603 161.864C438.603 172.15 446.941 180.488 457.227 180.488C467.513 180.488 475.851 172.15 475.851 161.864C475.851 151.578 467.513 143.24 457.227 143.24ZM432 161.864C432 147.932 443.295 136.637 457.227 136.637C471.16 136.637 482.454 147.932 482.454 161.864C482.454 175.797 471.16 187.091 457.227 187.091C443.295 187.091 432 175.797 432 161.864Z" fill="#ED7A3A"/>
<path fill-rule="evenodd" clip-rule="evenodd" d="M470.68 161.572C470.724 163.309 469.27 164.751 467.433 164.792L448.019 165.227C446.182 165.268 444.658 163.893 444.614 162.156C444.571 160.419 446.024 158.977 447.861 158.936L467.276 158.501C469.113 158.46 470.637 159.835 470.68 161.572Z" fill="#ED7A3A"/>
<path fill-rule="evenodd" clip-rule="evenodd" d="M456.935 149.252C458.672 149.209 460.114 150.617 460.155 152.396L460.59 171.18C460.631 172.959 459.256 174.435 457.519 174.477C455.782 174.519 454.34 173.111 454.299 171.332L453.864 152.549C453.823 150.77 455.198 149.294 456.935 149.252Z" fill="#ED7A3A"/>
<path d="M652.04 365.134H516.422V312.144H550.069V319.37H618.393V312.144H652.04V365.134ZM614.445 307.842H561.399V288.057H584.059V274.122L573.588 284.616H553.331V307.842H523.117V284.616H500.113V263.971H584.059V213.734H614.445V307.842ZM549.897 259.842H531.872C513.332 259.842 501.487 251.067 501.487 235.239C501.487 219.411 513.332 210.637 531.872 210.637H549.554C568.094 210.637 579.939 219.411 579.939 235.239C579.939 251.067 568.437 259.842 549.897 259.842ZM652.04 307.842H621.312V213.217H652.04V307.842ZM618.393 345.004V338.123H550.069V345.004H618.393ZM546.121 230.938H535.305C531.872 230.938 529.984 232.487 529.984 235.239C529.984 237.992 531.872 239.54 535.305 239.54H546.121C549.554 239.54 551.442 237.992 551.442 235.239C551.442 232.487 549.554 230.938 546.121 230.938Z" fill="#ED7A3A"/>
<path d="M814.301 296.143H782.714V267.584H773.615V295.111H742.372V280.315L727.265 293.907C718.681 285.993 711.128 277.907 704.433 269.304C697.566 278.423 688.983 287.025 680.571 295.455L659.284 276.358C668.726 267.068 677.824 256.573 685.206 245.562C687.609 241.949 687.953 237.992 687.953 233.175V213.217H720.741V233.691C720.741 237.992 721.085 241.089 723.316 244.53C728.638 252.444 735.505 260.702 742.372 268.272V213.734H773.615V238.68H782.714V213.217H814.301V296.143ZM783.4 367.886H708.381C684.519 367.886 674.391 352.402 674.391 333.993C674.391 315.585 685.034 300.1 708.896 300.1H783.915C807.777 300.1 818.421 315.585 818.421 333.993C818.421 352.402 807.262 367.886 783.4 367.886ZM776.19 327.972H716.621C711.128 327.972 708.038 330.036 708.038 333.993C708.038 337.778 711.3 339.843 716.621 339.843H776.19C781.512 339.843 784.774 337.778 784.774 333.993C784.774 330.036 781.684 327.972 776.19 327.972Z" fill="#ED7A3A"/>
<path d="M938.966 363.757H907.722V335.542L893.13 350.166H831.501V216.658H862.402V321.262H907.722V283.928H881.285V253.82H907.722V213.734H938.966V363.757ZM977.42 365.134H945.833V213.217H977.42V365.134Z" fill="#ED7A3A"/>
<path d="M1137.28 307.842H1103.63V271.025H1079.42C1077.19 273.95 1074.1 276.358 1070.33 278.595C1048.87 290.982 1025.18 302.509 1001.49 312.832L988.784 289.606C1000.11 284.616 1011.27 279.455 1022.26 273.777H993.762V249.691H1050.58V240.917H996.509V215.454H1084.23V242.121H1103.63V213.217H1137.28V307.842ZM1149.29 342.252L1137.11 367.886C1116.51 360.316 1093.84 352.574 1074.27 343.972C1054.7 352.574 1032.04 360.316 1011.44 367.886L999.255 342.252C1016.42 335.886 1032.56 329.864 1049.21 320.918C1052.13 319.37 1055.05 317.133 1055.05 313.176V305.778H1093.5V313.176C1093.5 317.133 1096.42 319.37 1099.34 320.918C1115.99 329.864 1132.13 335.886 1149.29 342.252Z" fill="#ED7A3A"/>
<path d="M1170.32 372.091L1179.22 432.636L1194.36 413.795L1218.25 410.15L1170.32 372.091Z" fill="white"/>
<path fill-rule="evenodd" clip-rule="evenodd" d="M1168.61 369.169C1169.78 368.492 1171.25 368.601 1172.32 369.444L1220.36 407.579C1221.39 408.396 1221.84 409.745 1221.5 411.014C1221.16 412.284 1220.1 413.232 1218.8 413.431L1196.13 416.889L1181.76 434.766C1180.94 435.79 1179.58 436.229 1178.31 435.884C1177.05 435.54 1176.1 434.477 1175.91 433.177L1166.99 372.511C1166.79 371.17 1167.43 369.845 1168.61 369.169ZM1174.74 379.809L1181.35 424.725L1191.78 411.749C1192.3 411.105 1193.04 410.678 1193.86 410.553L1210.32 408.043L1174.74 379.809Z" fill="#ED7A3A"/>
<path d="M540.014 270.341C520.163 270.341 503.806 255.414 501.96 235.623C500.015 214.622 515.498 195.943 536.5 193.977C537.691 193.858 538.902 193.819 540.093 193.819C559.944 193.819 576.301 208.746 578.148 228.537C579.1 238.72 576.023 248.645 569.493 256.506C562.962 264.366 553.771 269.23 543.587 270.163C542.396 270.282 541.185 270.321 539.994 270.321L540.014 270.341Z" fill="white"/>
<path d="M540.527 197.226C558.536 197.226 573.888 210.951 575.593 229.218C577.398 248.615 563.138 265.791 543.741 267.596C542.63 267.695 541.519 267.755 540.428 267.755C522.419 267.755 507.068 254.03 505.362 235.763C503.557 216.366 517.818 199.19 537.215 197.385C538.326 197.286 539.437 197.226 540.527 197.226ZM540.527 191.296C539.238 191.296 537.949 191.355 536.66 191.474C525.712 192.486 515.795 197.722 508.774 206.191C501.753 214.66 498.44 225.35 499.452 236.318C501.435 257.62 519.048 273.705 540.428 273.705C541.718 273.705 543.007 273.645 544.296 273.526C555.244 272.515 565.161 267.279 572.182 258.81C579.203 250.341 582.515 239.65 581.504 228.682C579.521 207.381 561.908 191.296 540.527 191.296Z" fill="#ED7A3A"/>
<path d="M540.476 266.978C552.086 266.978 561.499 251.353 561.499 232.08C561.499 212.807 552.086 197.182 540.476 197.182C528.865 197.182 519.453 212.807 519.453 232.08C519.453 251.353 528.865 266.978 540.476 266.978Z" fill="white"/>
<path fill-rule="evenodd" clip-rule="evenodd" d="M526.831 208.043C523.221 214.098 520.923 222.591 520.923 232.08C520.923 241.569 523.221 250.062 526.831 256.117C530.467 262.214 535.207 265.522 540.057 265.522C544.906 265.522 549.646 262.214 553.282 256.117C556.893 250.062 559.19 241.569 559.19 232.08C559.19 222.591 556.893 214.098 553.282 208.043C549.646 201.946 544.906 198.638 540.057 198.638C535.207 198.638 530.467 201.946 526.831 208.043ZM523.401 206.01C527.412 199.284 533.236 194.66 540.057 194.66C546.877 194.66 552.701 199.284 556.713 206.01C560.749 212.779 563.182 222.001 563.182 232.08C563.182 242.159 560.749 251.381 556.713 258.15C552.701 264.877 546.877 269.5 540.057 269.5C533.236 269.5 527.412 264.877 523.401 258.15C519.364 251.381 516.932 242.159 516.932 232.08C516.932 222.001 519.364 212.779 523.401 206.01Z" fill="#ED7A3A"/>
<path fill-rule="evenodd" clip-rule="evenodd" d="M540.057 194.66C541.218 194.66 542.16 195.55 542.16 196.649V267.511C542.16 268.61 541.218 269.5 540.057 269.5C538.896 269.5 537.955 268.61 537.955 267.511V196.649C537.955 195.55 538.896 194.66 540.057 194.66Z" fill="#ED7A3A"/>
<path fill-rule="evenodd" clip-rule="evenodd" d="M502.637 232.08C502.637 230.919 503.527 229.978 504.626 229.978H575.488C576.587 229.978 577.477 230.919 577.477 232.08C577.477 233.241 576.587 234.182 575.488 234.182H504.626C503.527 234.182 502.637 233.241 502.637 232.08Z" fill="#ED7A3A"/>
<path fill-rule="evenodd" clip-rule="evenodd" d="M540.056 250.742C530.452 250.742 521.868 253.637 515.873 258.171C515.006 258.827 513.775 258.653 513.122 257.782C512.469 256.912 512.643 255.675 513.509 255.019C520.266 249.909 529.706 246.796 540.056 246.796C550.406 246.796 559.846 249.909 566.603 255.019C567.469 255.675 567.643 256.912 566.99 257.782C566.338 258.653 565.106 258.827 564.239 258.171C558.244 253.637 549.66 250.742 540.056 250.742Z" fill="#ED7A3A"/>
<path fill-rule="evenodd" clip-rule="evenodd" d="M513.122 206.378C513.775 205.507 515.006 205.333 515.873 205.989C521.868 210.523 530.452 213.418 540.056 213.418C549.66 213.418 558.244 210.523 564.239 205.989C565.106 205.333 566.338 205.507 566.99 206.378C567.643 207.248 567.469 208.485 566.603 209.141C559.846 214.251 550.406 217.364 540.056 217.364C529.706 217.364 520.266 214.251 513.509 209.141C512.643 208.485 512.469 207.248 513.122 206.378Z" fill="#ED7A3A"/>
<path d="M1232.42 520.375H1523.08C1542.42 520.375 1558.12 536.062 1558.12 555.387V683.314H1232.42C1213.08 683.314 1197.38 667.626 1197.38 648.301V555.387C1197.38 536.062 1213.08 520.375 1232.42 520.375Z" fill="#EE7A3A"/>
<path d="M1558.12 685.714H1237.47C1214.06 685.714 1195 666.666 1195 643.274V560.44C1195 537.047 1214.04 518 1237.47 518H1518.05C1541.46 518 1560.52 537.047 1560.52 560.44V683.314C1560.52 684.627 1559.46 685.688 1558.14 685.688L1558.12 685.714ZM1237.47 522.774C1216.69 522.774 1199.78 539.675 1199.78 560.44V643.274C1199.78 664.039 1216.69 680.939 1237.47 680.939H1555.74V560.44C1555.74 539.675 1538.83 522.774 1518.05 522.774H1237.47Z" fill="#EE7A3A"/>
<path d="M1286.67 627.257C1286.67 631.527 1285.33 635.013 1282.68 637.665C1280.02 640.318 1276.53 641.657 1272.26 641.657H1236.41V623.898H1266.92V562.41H1286.67V627.257Z" fill="white"/>
<path d="M1366.99 641.657H1312.18C1307.91 641.657 1304.42 640.318 1301.76 637.665C1299.11 635.013 1297.77 631.527 1297.77 627.257V576.809C1297.77 572.54 1299.11 569.054 1301.76 566.402C1304.42 563.724 1307.91 562.41 1312.18 562.41H1366.99V580.169H1317.51V592.8H1365.42V609.094H1317.51V623.898H1366.99V641.657Z" fill="white"/>
<path d="M1423.77 627.257C1423.77 631.527 1422.43 635.013 1419.78 637.665C1417.12 640.318 1413.63 641.657 1409.36 641.657H1373.51V623.898H1404.03V562.41H1423.77V627.257Z" fill="white"/>
<path d="M1504.97 627.257C1504.97 631.527 1503.63 635.013 1500.98 637.665C1498.32 640.318 1494.83 641.657 1490.56 641.657H1449.28C1445.01 641.657 1441.52 640.318 1438.86 637.665C1436.21 635.013 1434.87 631.527 1434.87 627.257V562.41H1454.61V623.898H1485.23V562.41H1504.97V627.257Z" fill="white"/>
<path d="M1550.22 2372.3C1595.62 2372.3 1632.43 2335.52 1632.43 2290.15C1632.43 2244.78 1595.62 2208 1550.22 2208C1504.81 2208 1468 2244.78 1468 2290.15C1468 2335.52 1504.81 2372.3 1550.22 2372.3Z" fill="white" stroke="#E3773B" stroke-width="5" stroke-miterlimit="10"/>
<path d="M1612.1 2279.82C1613.85 2290.2 1612.99 2301.17 1609.1 2311.75C1597.14 2344.24 1561.09 2360.91 1528.57 2348.96L1561.21 2320.09C1569.71 2316.95 1576.84 2310.29 1580.2 2301.14C1585.26 2287.42 1580.27 2272.44 1568.95 2264.28L1611.52 2279.92L1612.13 2279.82H1612.1Z" fill="#F6B35A"/>
<path d="M1612.1 2279.82L1611.5 2279.92L1568.92 2264.28C1566.6 2262.62 1564.04 2261.23 1561.21 2260.19C1544.65 2254.1 1526.3 2262.59 1520.23 2279.14C1519.57 2280.91 1519.09 2282.7 1518.77 2284.47L1510.52 2241.57C1527.13 2228.03 1550.27 2223.38 1571.83 2231.29C1593.75 2239.35 1608.46 2258.35 1612.08 2279.82H1612.1Z" fill="#F6B35A"/>
<path d="M1558.63 2267.29C1571.25 2271.91 1577.72 2285.91 1573.07 2298.51C1568.42 2311.12 1554.44 2317.59 1541.82 2312.94C1529.21 2308.32 1522.73 2294.32 1527.38 2281.71C1532.01 2269.11 1546.02 2262.64 1558.63 2267.29Z" fill="#EE7A3A"/>
<path d="M1561.21 2320.06L1528.57 2348.96C1496.06 2337.01 1479.38 2300.99 1491.33 2268.5C1495.35 2257.56 1502.1 2248.42 1510.55 2241.57L1518.79 2284.47C1516.06 2299.45 1524.4 2314.66 1539.19 2320.09C1546.6 2322.82 1554.34 2322.61 1561.19 2320.09L1561.21 2320.06Z" fill="#F6B35A"/>
<path d="M1614.63 2279.39C1610.76 2256.3 1594.71 2236.95 1572.74 2228.89C1551.2 2220.98 1526.75 2225.08 1508.93 2239.58C1499.88 2246.93 1492.98 2256.63 1488.93 2267.62C1482.92 2283.96 1483.62 2301.7 1490.96 2317.51C1498.26 2333.32 1511.31 2345.35 1527.69 2351.36C1535.05 2354.06 1542.66 2355.4 1550.27 2355.4C1559.6 2355.4 1568.9 2353.38 1577.62 2349.34C1593.45 2342.04 1605.48 2329 1611.5 2312.63C1615.42 2302.02 1616.48 2290.53 1614.63 2279.39ZM1550.34 2230.03C1557.29 2230.03 1564.3 2231.24 1571 2233.69C1589.93 2240.66 1604.12 2256.73 1608.79 2276.21L1570.14 2262.01C1567.69 2260.27 1565.01 2258.85 1562.15 2257.82C1545.59 2251.73 1527.31 2259.21 1519.52 2274.56L1513.38 2242.66C1524.07 2234.4 1537.15 2230.08 1550.37 2230.08L1550.34 2230.03ZM1560.33 2317.69C1553.81 2320.09 1546.63 2320.09 1540.08 2317.69C1526.63 2312.74 1518.74 2298.97 1521.29 2284.9C1521.6 2283.23 1522.05 2281.59 1522.63 2280C1527.01 2268.12 1538.26 2260.77 1550.24 2260.77C1553.6 2260.77 1557.02 2261.35 1560.35 2262.57C1562.88 2263.5 1565.26 2264.76 1567.43 2266.33C1578.05 2274.01 1582.3 2287.95 1577.77 2300.26C1574.79 2308.37 1568.42 2314.71 1560.3 2317.69H1560.33ZM1495.58 2315.36C1488.83 2300.79 1488.18 2284.44 1493.71 2269.39C1496.92 2260.62 1502.13 2252.76 1508.86 2246.42L1516.19 2284.52C1513.46 2300.84 1522.68 2316.75 1538.31 2322.49C1542.15 2323.9 1546.17 2324.61 1550.19 2324.61C1550.9 2324.61 1551.63 2324.58 1552.34 2324.53L1528.02 2346.06C1513.58 2340.35 1502.08 2329.53 1495.56 2315.41L1495.58 2315.36ZM1606.69 2310.87C1601.16 2325.95 1590.06 2337.97 1575.47 2344.69C1562.2 2350.83 1547.51 2351.92 1533.61 2347.9L1562.58 2322.26C1571.86 2318.7 1579.14 2311.35 1582.58 2302C1586.52 2291.31 1584.78 2279.54 1578.56 2270.5L1609.85 2281.99C1611.17 2291.69 1610.08 2301.62 1606.69 2310.84V2310.87Z" fill="#EE7A3A"/>
<path d="M1582.91 2645.46C1603.72 2650.51 1616.48 2671.44 1611.43 2692.23C1611.9 2674.37 1599 2657.98 1580.94 2653.6C1574.24 2651.97 1567.56 2652.2 1561.39 2653.92C1551.99 2641.65 1540.55 2630.62 1528.45 2620.92C1530.06 2620 1531.84 2619.26 1533.72 2618.76L1533.85 2618.59C1544.42 2626.62 1554.5 2635.66 1563.34 2645.77C1569.51 2644.03 1576.22 2643.84 1582.89 2645.45L1582.91 2645.46Z" fill="#FEF153"/>
<path d="M1611.43 2692.23C1606.38 2713.02 1585.44 2725.77 1564.64 2720.71C1543.84 2715.66 1531.07 2694.73 1536.12 2673.94C1536.6 2671.96 1537.23 2670.06 1537.99 2668.23C1529.24 2660.53 1520.25 2653.6 1511.32 2647.39C1511.32 2647.39 1515.13 2628.38 1528.45 2620.92C1540.55 2630.62 1551.99 2641.65 1561.39 2653.92C1567.56 2652.17 1574.27 2651.98 1580.94 2653.6C1599 2657.98 1611.89 2674.4 1611.43 2692.23Z" fill="white"/>
<path d="M1454.14 2575.51C1475.34 2583.62 1506.28 2597.67 1533.88 2618.59L1533.75 2618.76C1531.84 2619.26 1530.09 2620.01 1528.47 2620.92C1489.17 2589.37 1442.82 2571.63 1436.49 2569.29C1440.93 2570.71 1446.98 2572.78 1454.14 2575.51Z" fill="#FEF153"/>
<path d="M1436.29 2569.22C1436.29 2569.22 1436.42 2569.25 1436.47 2569.26C1442.8 2571.59 1489.12 2589.33 1528.45 2620.89C1515.15 2628.32 1511.32 2647.36 1511.32 2647.36C1495.04 2636.01 1479 2627.14 1465.45 2620.47C1462.25 2618.89 1459.18 2617.46 1456.31 2616.14C1457.63 2625.36 1457.47 2634.94 1455.57 2644.54C1443.74 2650.12 1416.98 2659.61 1372.87 2658.99C1312.88 2658.13 1282.32 2632.11 1282.32 2632.11C1280.93 2622.56 1281.04 2612.63 1282.83 2602.69C1283.15 2600.89 1283.53 2599.07 1283.97 2597.28C1284.32 2595.85 1284.68 2594.46 1285.1 2593.08C1287.47 2584.98 1290.89 2577.45 1295.15 2570.58L1295.33 2570.17C1300.43 2572.63 1305.76 2574.69 1311.3 2576.38L1311.33 2576.39C1313.27 2576.97 1315.21 2577.5 1317.2 2577.98C1354.48 2587.04 1391.95 2575.97 1418.15 2551.76C1424.18 2555.75 1431.77 2563.65 1435.75 2569.06C1435.75 2569.06 1435.94 2569.1 1436.31 2569.25L1436.29 2569.22Z" fill="#F6B35A"/>
<path d="M1488.45 2725.05C1489.87 2728.1 1492.4 2729.85 1492.4 2729.85C1492.4 2729.85 1483.05 2728.29 1479.04 2734.12C1475.04 2739.94 1477.14 2746.99 1477.14 2746.99C1477.14 2746.99 1468.69 2743.92 1463.62 2750.05C1462.93 2750.88 1462.4 2751.69 1461.95 2752.46L1461.55 2752.25C1442.41 2751.13 1429.32 2743.83 1420.49 2735.31C1443.92 2730.96 1452.39 2717.52 1455.48 2708.66C1462.66 2716.6 1473.19 2723.54 1488.48 2725.03L1488.45 2725.05Z" fill="white"/>
<path d="M1487.69 2719.01C1487.24 2721.35 1487.68 2723.39 1488.44 2725.05C1473.15 2723.56 1462.63 2716.62 1455.45 2708.68C1457.05 2704.09 1457.18 2700.74 1457.2 2700.54C1463.71 2707.93 1473.34 2714.81 1487.4 2717.26L1488.09 2717.49C1487.95 2717.96 1487.82 2718.5 1487.71 2719.04L1487.69 2719.01Z" fill="#FEF153"/>
<path d="M1457.2 2700.54C1457.21 2700.74 1457.05 2704.09 1455.45 2708.68C1444.12 2696.14 1441.2 2681.07 1441.2 2681.07C1442.4 2679.77 1443.55 2678.43 1444.68 2677.08C1444.68 2677.08 1447.38 2689.4 1457.2 2700.54Z" fill="#FEF153"/>
<path d="M1465.34 2620.72C1465.19 2627.31 1464.36 2634 1462.74 2640.66C1462.74 2640.66 1460.41 2642.28 1455.57 2644.54C1457.47 2634.94 1457.63 2625.37 1456.31 2616.14C1459.21 2617.47 1462.27 2618.93 1465.45 2620.47L1465.34 2620.7L1465.34 2620.72Z" fill="#FEF153"/>
<path d="M1455.56 2644.57C1460.41 2642.31 1462.74 2640.68 1462.74 2640.68C1459.38 2654.49 1453.1 2666.78 1444.68 2677.08C1443.55 2678.46 1442.4 2679.77 1441.2 2681.07C1435.32 2687.49 1428.53 2693.04 1421.13 2697.53C1437.38 2686.14 1449.71 2669 1454.76 2648.22C1455.05 2647.01 1455.32 2645.79 1455.56 2644.57Z" fill="#FEF153"/>
<path d="M1313.91 2689.07C1310.01 2690 1302.96 2691.84 1294.67 2694.81C1288.15 2697.15 1280.85 2700.16 1273.78 2703.96L1273.66 2703.73C1273.66 2703.27 1273.63 2702.81 1273.6 2702.35C1271.9 2667.98 1243.81 2661.16 1243.81 2661.16L1243.61 2660.68C1262.02 2652.27 1279.66 2650.21 1286.72 2649.71C1284.69 2644.03 1283.22 2638.13 1282.35 2632.09C1282.35 2632.09 1312.92 2658.11 1372.91 2658.97C1417.02 2659.59 1443.77 2650.1 1455.6 2644.52C1455.36 2645.75 1455.09 2646.96 1454.8 2648.17C1449.75 2668.96 1437.42 2686.1 1421.17 2697.48C1415.52 2700.92 1409.52 2703.72 1403.25 2705.87C1387.22 2711.37 1369.44 2712.51 1351.76 2708.21C1338.48 2704.99 1326.58 2699.03 1316.52 2691.1C1315.66 2690.43 1314.83 2689.72 1313.98 2689.03L1313.91 2689.07Z" fill="#EE7A3A"/>
<path d="M1421.09 2697.55C1428.51 2693.04 1435.28 2687.51 1441.18 2681.07C1441.18 2681.07 1444.09 2696.14 1455.42 2708.67C1452.33 2717.53 1443.85 2731 1420.43 2735.33C1406.63 2722.05 1403.15 2705.91 1403.15 2705.91C1409.42 2703.76 1415.43 2700.95 1421.07 2697.52L1421.09 2697.55Z" fill="#EE7A3A"/>
<path d="M1447.97 2565.74C1450.22 2568.9 1452.3 2572.19 1454.14 2575.51C1446.98 2572.78 1440.91 2570.71 1436.49 2569.29C1436.41 2569.28 1436.36 2569.26 1436.31 2569.25C1435.94 2569.1 1435.76 2569.06 1435.76 2569.06C1431.77 2563.65 1424.19 2555.75 1418.15 2551.76C1420.91 2549.19 1423.56 2546.5 1426.07 2543.67C1434.53 2549.59 1441.97 2557.31 1448 2565.77L1447.97 2565.74Z" fill="#FEF153"/>
<path d="M1450.34 2496.92C1445.98 2514.86 1437.47 2530.68 1426.07 2543.64C1423.56 2546.47 1420.94 2549.19 1418.16 2551.73C1391.96 2575.94 1354.51 2587.02 1317.21 2577.96C1315.22 2577.47 1313.27 2576.94 1311.33 2576.36C1368.13 2586.37 1423.66 2550.65 1437.45 2493.85C1451.24 2437.04 1417.88 2379.17 1362.24 2362.39C1364.55 2362.81 1366.89 2363.29 1369.2 2363.85C1377.13 2365.78 1384.63 2368.51 1391.68 2371.96C1437.17 2394.18 1462.77 2445.7 1450.34 2496.92Z" fill="#FEF153"/>
<path d="M1437.45 2493.85C1423.67 2550.62 1368.12 2586.34 1311.34 2576.36L1311.31 2576.35C1305.76 2574.7 1300.41 2572.6 1295.34 2570.15C1292.18 2568.64 1289.11 2566.98 1286.16 2565.18C1249.27 2542.92 1228.04 2500.34 1233.93 2456.4C1234.43 2452.57 1235.16 2448.74 1236.09 2444.92C1243.56 2414.17 1263.27 2389.58 1288.82 2375.11C1310.44 2362.87 1336.22 2357.84 1362.26 2362.42C1417.9 2379.2 1451.34 2436.76 1437.47 2493.88L1437.45 2493.85ZM1353.55 2463.01C1363.61 2464.34 1372.84 2457.28 1374.17 2447.23C1375.5 2437.17 1368.44 2427.94 1358.38 2426.58C1348.32 2425.22 1339.09 2432.31 1337.73 2442.36C1336.37 2452.41 1343.46 2461.64 1353.52 2463L1353.55 2463.01ZM1317.03 2458.89C1327.1 2460.23 1336.33 2453.17 1337.68 2443.12C1339.02 2433.06 1331.95 2423.83 1321.89 2422.47C1311.83 2421.14 1302.6 2428.2 1301.24 2438.25C1299.88 2448.3 1306.97 2457.53 1317.03 2458.89Z" fill="white"/>
<path d="M1374.17 2447.22C1372.84 2457.28 1363.58 2464.33 1353.55 2463.01C1343.48 2461.67 1336.42 2452.42 1337.75 2442.36C1339.08 2432.31 1348.34 2425.25 1358.4 2426.59C1368.47 2427.92 1375.53 2437.17 1374.2 2447.23L1374.17 2447.22ZM1354.93 2452.48C1359.18 2453.05 1363.09 2450.05 1363.67 2445.81C1364.24 2441.57 1361.24 2437.66 1356.99 2437.08C1352.75 2436.51 1348.83 2439.51 1348.26 2443.75C1347.69 2447.99 1350.69 2451.9 1354.93 2452.48Z" fill="white"/>
<path d="M1363.67 2445.81C1363.1 2450.05 1359.21 2453.06 1354.94 2452.48C1350.67 2451.9 1347.69 2447.99 1348.26 2443.75C1348.84 2439.51 1352.73 2436.5 1357 2437.08C1361.27 2437.66 1364.25 2441.55 1363.67 2445.81Z" fill="#EE7A3A"/>
<path d="M1337.66 2443.08C1336.33 2453.14 1327.08 2460.19 1317.01 2458.86C1306.95 2457.52 1299.88 2448.27 1301.22 2438.21C1302.55 2428.16 1311.8 2421.1 1321.87 2422.44C1331.93 2423.77 1338.99 2433.02 1337.66 2443.08ZM1318.43 2448.34C1322.67 2448.91 1326.59 2445.91 1327.16 2441.67C1327.74 2437.43 1324.73 2433.51 1320.49 2432.94C1316.24 2432.36 1312.33 2435.36 1311.75 2439.6C1311.18 2443.85 1314.18 2447.76 1318.43 2448.34Z" fill="white"/>
<path d="M1273.66 2703.76L1273.78 2703.98C1261.24 2710.72 1249.3 2719.91 1243.39 2732.07C1237.78 2743.56 1236.38 2756.22 1236.91 2767.76C1237.86 2788.6 1245.07 2805.8 1245.07 2805.8C1262.31 2814.39 1265.97 2850.89 1230.66 2862.34C1256.63 2848.2 1254.12 2817.27 1238.46 2809.46C1238.46 2809.46 1220.73 2767.58 1235.64 2734.91C1243.89 2716.86 1259.26 2708.45 1273.62 2702.38C1273.65 2702.84 1273.66 2703.27 1273.69 2703.76L1273.66 2703.76Z" fill="#FEF153"/>
<path d="M1238.43 2809.45C1254.12 2817.27 1256.63 2848.2 1230.63 2862.33C1222.25 2865.05 1211.66 2866.37 1198.56 2865.55C1156.58 2862.98 1146.35 2846.99 1144.69 2835.04C1143.65 2827.5 1146.02 2821.59 1146.02 2821.59C1156.48 2797.06 1189.05 2799.34 1189.05 2799.34C1180.53 2780.17 1176.45 2736.24 1203.67 2694.24C1214.38 2677.7 1229.22 2667.31 1243.6 2660.74L1243.8 2661.21C1243.8 2661.21 1271.89 2668.03 1273.59 2702.4C1259.2 2708.44 1243.83 2716.88 1235.6 2734.93C1220.67 2767.59 1238.42 2809.48 1238.42 2809.48L1238.43 2809.45Z" fill="white"/>
<path d="M1327.16 2441.7C1326.58 2445.94 1322.67 2448.94 1318.42 2448.36C1314.18 2447.79 1311.17 2443.9 1311.75 2439.63C1312.33 2435.36 1316.21 2432.38 1320.48 2432.97C1324.75 2433.55 1327.74 2437.43 1327.16 2441.7Z" fill="#EE7A3A"/>
<path d="M1295.34 2570.15L1295.16 2570.56C1290.9 2577.43 1287.5 2584.97 1285.11 2593.06C1258.69 2594.86 1237.24 2598.1 1215.2 2604.1C1207.76 2590.89 1211.58 2575.77 1211.58 2575.77C1238.43 2568.47 1265.61 2566 1286.06 2565.36L1286.16 2565.19C1289.14 2566.99 1292.18 2568.64 1295.34 2570.15Z" fill="#F6B35A"/>
<path d="M1282.83 2602.69C1265.69 2603.42 1243.74 2605.54 1220.3 2610.85C1218.2 2608.72 1216.54 2606.44 1215.23 2604.1C1237.26 2598.11 1258.71 2594.87 1285.14 2593.06C1284.74 2594.45 1284.35 2595.83 1284 2597.25C1283.57 2599.05 1283.18 2600.87 1282.86 2602.67L1282.83 2602.69Z" fill="#FEF153"/>
<path d="M1215.2 2604.1C1216.51 2606.43 1218.18 2608.72 1220.28 2610.85C1211.16 2612.9 1201.82 2615.47 1192.44 2618.59C1192.41 2620.58 1192.27 2622.56 1191.93 2624.58C1188.45 2645.69 1168.53 2660 1147.42 2656.52C1139.32 2655.21 1132.21 2651.43 1126.7 2646.11C1130.93 2648.73 1135.71 2650.61 1140.92 2651.44C1162.04 2654.92 1181.97 2640.6 1185.42 2619.5C1185.74 2617.48 1185.91 2615.5 1185.93 2613.51C1196.08 2609.81 1205.69 2606.71 1215.17 2604.12L1215.2 2604.1Z" fill="#FEF153"/>
<path d="M1211.57 2575.77C1211.57 2575.77 1207.76 2590.89 1215.2 2604.1C1205.72 2606.69 1196.11 2609.79 1185.96 2613.49C1185.94 2615.48 1185.79 2617.49 1185.45 2619.48C1181.97 2640.6 1162.05 2654.9 1140.95 2651.42C1135.74 2650.59 1130.93 2648.71 1126.73 2646.09C1117.93 2637.56 1113.32 2625.01 1115.45 2612.01C1118.9 2590.9 1138.85 2576.6 1159.95 2580.07C1166.74 2581.18 1172.8 2583.99 1177.84 2588C1188.67 2582.87 1200.09 2578.87 1211.57 2575.77Z" fill="white"/>
<path d="M1144.05 2657.75C1137.01 2656.04 1130.61 2652.52 1125.4 2647.45C1115.84 2638.19 1111.43 2624.83 1113.59 2611.7C1115.33 2601.01 1121.17 2591.62 1130 2585.29C1138.82 2578.95 1149.56 2576.44 1160.3 2578.19C1166.76 2579.25 1172.89 2581.88 1178.12 2585.79C1188.09 2581.16 1199.2 2577.17 1211.11 2573.92C1239.03 2566.34 1267.25 2564.04 1286.01 2563.44C1287.07 2563.42 1287.93 2564.22 1287.98 2565.29C1288.01 2566.35 1287.2 2567.2 1286.14 2567.26C1267.58 2567.84 1239.65 2570.1 1212.1 2577.6C1199.97 2580.89 1188.7 2584.98 1178.67 2589.74C1178.02 2590.06 1177.25 2589.96 1176.67 2589.51C1171.76 2585.59 1165.9 2583 1159.66 2581.97C1149.95 2580.37 1140.2 2582.64 1132.21 2588.38C1124.21 2594.12 1118.93 2602.62 1117.34 2612.33C1115.39 2624.23 1119.4 2636.32 1128.06 2644.74C1133.47 2650.01 1140.26 2653.42 1147.74 2654.64C1167.8 2657.94 1186.77 2644.29 1190.06 2624.27C1190.37 2622.44 1190.52 2620.52 1190.57 2618.56C1190.57 2617.74 1191.11 2617.05 1191.86 2616.77C1200.75 2613.79 1210.18 2611.18 1219.88 2608.99C1239.88 2604.46 1261.01 2601.71 1282.75 2600.79C1283.78 2600.76 1284.69 2601.57 1284.73 2602.61C1284.79 2603.65 1283.94 2604.55 1282.91 2604.58C1261.43 2605.48 1240.5 2608.22 1220.71 2612.69C1211.62 2614.75 1202.74 2617.2 1194.33 2619.96C1194.27 2621.62 1194.09 2623.29 1193.82 2624.87C1190.19 2646.97 1169.26 2662.02 1147.11 2658.38C1146.07 2658.21 1145.05 2657.99 1144.05 2657.75Z" fill="#EE7A3A"/>
<path d="M1286.26 2651.61C1285.78 2651.5 1285.34 2651.19 1285.05 2650.72C1284.99 2650.62 1284.94 2650.5 1284.9 2650.4C1282.82 2644.58 1281.33 2638.53 1280.44 2632.43C1279 2622.43 1279.18 2612.32 1280.97 2602.38C1281.31 2600.5 1281.71 2598.63 1282.14 2596.86C1282.47 2595.46 1282.85 2594.02 1283.29 2592.59C1285.66 2584.46 1289.1 2576.74 1293.54 2569.59C1294.1 2568.7 1295.27 2568.42 1296.16 2568.98C1297.05 2569.54 1297.34 2570.71 1296.78 2571.6C1292.53 2578.45 1289.24 2585.87 1286.96 2593.65C1286.56 2595.06 1286.17 2596.42 1285.84 2597.76C1285.43 2599.48 1285.05 2601.26 1284.73 2603.06C1283.01 2612.6 1282.82 2622.28 1284.22 2631.89C1285.07 2637.76 1286.51 2643.57 1288.51 2649.14C1288.84 2649.99 1288.49 2650.99 1287.67 2651.44C1287.23 2651.71 1286.74 2651.76 1286.28 2651.65L1286.26 2651.61Z" fill="#EE7A3A"/>
<path d="M1351.24 2710.11C1337.99 2706.89 1325.87 2701.02 1315.27 2692.64C1314.4 2691.98 1313.53 2691.25 1312.68 2690.53C1311.87 2689.86 1311.76 2688.66 1312.47 2687.87C1313.15 2687.07 1314.33 2686.98 1315.14 2687.66C1315.97 2688.35 1316.8 2689.03 1317.61 2689.68C1327.78 2697.73 1339.39 2703.36 1352.13 2706.46C1368.9 2710.53 1386.34 2709.73 1402.55 2704.17C1408.67 2702.07 1414.55 2699.31 1420.08 2695.97C1420.99 2695.42 1422.14 2695.7 1422.69 2696.6C1423.24 2697.5 1422.96 2698.66 1422.06 2699.2C1416.29 2702.7 1410.15 2705.58 1403.78 2707.77C1386.86 2713.58 1368.67 2714.4 1351.2 2710.16L1351.24 2710.11Z" fill="#EE7A3A"/>
<path d="M1420.65 2699.38C1420.17 2699.26 1419.75 2698.96 1419.46 2698.52C1418.91 2697.62 1419.19 2696.46 1420.1 2695.91C1427.4 2691.49 1434.01 2686.07 1439.75 2679.78C1440.95 2678.48 1442.09 2677.17 1443.15 2675.86C1451.69 2665.42 1457.65 2653.41 1460.86 2640.2C1462.42 2633.78 1463.27 2627.22 1463.41 2620.68C1463.44 2619.64 1464.3 2618.79 1465.34 2618.82C1466.39 2618.85 1467.23 2619.7 1467.21 2620.75C1467.06 2627.57 1466.16 2634.43 1464.54 2641.09C1461.2 2654.87 1455.01 2667.36 1446.1 2678.25C1445 2679.61 1443.82 2680.97 1442.55 2682.34C1436.55 2688.87 1429.66 2694.51 1422.05 2699.12C1421.62 2699.38 1421.09 2699.45 1420.63 2699.34L1420.65 2699.38Z" fill="#EE7A3A"/>
<path d="M1330.14 2655.67C1298.34 2647.95 1282.03 2634.35 1281.11 2633.58C1280.3 2632.9 1280.22 2631.72 1280.9 2630.91C1281.58 2630.11 1282.76 2630.03 1283.57 2630.71C1283.95 2631.03 1314.47 2656.3 1372.9 2657.12C1416.5 2657.73 1442.89 2648.46 1454.75 2642.87C1459.34 2640.71 1461.63 2639.13 1461.66 2639.14C1462.52 2638.55 1463.72 2638.76 1464.31 2639.61C1464.9 2640.47 1464.69 2641.67 1463.84 2642.26C1463.74 2642.32 1461.31 2644 1456.39 2646.31C1444.24 2652.03 1417.23 2661.54 1372.86 2660.92C1356.41 2660.68 1342.17 2658.62 1330.13 2655.69L1330.14 2655.67Z" fill="#EE7A3A"/>
<path d="M1176.18 2864.32C1151.61 2858.36 1144.26 2845.85 1142.81 2835.32C1141.71 2827.4 1144.14 2821.16 1144.25 2820.91C1153.23 2799.88 1177.67 2797.57 1186.19 2797.42C1181.88 2786.1 1179.97 2770.62 1181.06 2755.25C1182.61 2733.52 1189.86 2712.08 1202.07 2693.23C1211.59 2678.53 1225.28 2667.04 1242.82 2659.04C1261.58 2650.48 1279.67 2648.39 1286.57 2647.88C1288.68 2647.74 1289.88 2647.71 1289.94 2647.73C1290.99 2647.73 1291.84 2648.56 1291.87 2649.62C1291.87 2650.67 1291.04 2651.52 1289.98 2651.55C1289.98 2651.55 1288.84 2651.56 1286.84 2651.7C1280.15 2652.18 1262.57 2654.22 1244.39 2662.52C1227.52 2670.23 1214.37 2681.25 1205.26 2695.34C1178.98 2735.91 1182.21 2779.36 1190.79 2798.65C1191.07 2799.26 1190.99 2799.95 1190.62 2800.51C1190.23 2801.04 1189.59 2801.37 1188.94 2801.33C1188.63 2801.31 1157.6 2799.46 1147.78 2822.45C1147.78 2822.45 1145.63 2828.01 1146.58 2834.9C1147.84 2844.22 1154.58 2855.27 1177.05 2860.73C1183.07 2862.19 1190.19 2863.23 1198.66 2863.75C1210.77 2864.51 1221.34 2863.43 1230.02 2860.62C1251.83 2853.54 1255.29 2838 1255.75 2831.66C1256.54 2821.27 1251.77 2811.38 1244.17 2807.6C1243.77 2807.39 1243.45 2807.06 1243.27 2806.64C1242.96 2805.91 1235.91 2788.9 1234.98 2767.97C1234.35 2754.05 1236.6 2741.74 1241.65 2731.36C1246.98 2720.43 1257.49 2710.69 1272.84 2702.45C1279.15 2699.06 1286.26 2695.95 1293.99 2693.16C1302.56 2690.1 1309.85 2688.23 1313.44 2687.36C1315.5 2686.87 1316.67 2686.64 1316.73 2686.63C1317.74 2686.42 1318.74 2687.11 1318.95 2688.13C1319.16 2689.15 1318.46 2690.15 1317.44 2690.35C1317.44 2690.35 1316.28 2690.58 1314.31 2691.05C1310.81 2691.87 1303.65 2693.72 1295.26 2696.71C1287.72 2699.43 1280.77 2702.47 1274.62 2705.75C1259.96 2713.63 1250.02 2722.79 1245.04 2733.01C1240.27 2742.8 1238.14 2754.51 1238.73 2767.77C1239.55 2785.86 1245.22 2801.28 1246.49 2804.52C1255.03 2809.18 1260.35 2820.34 1259.5 2831.94C1258.96 2839.06 1255.14 2856.45 1231.13 2864.24C1221.98 2867.23 1210.95 2868.33 1198.36 2867.58C1189.72 2867.04 1182.35 2865.97 1176.09 2864.45L1176.18 2864.32Z" fill="#EE7A3A"/>
<path d="M1564.19 2722.57C1542.39 2717.27 1528.98 2695.27 1534.26 2673.49C1534.66 2671.88 1535.15 2670.3 1535.73 2668.76C1527.86 2661.9 1519.29 2655.21 1510.23 2648.92C1496.23 2639.17 1480.88 2630.19 1464.61 2622.17C1461.58 2620.69 1458.52 2619.24 1455.53 2617.86C1439.13 2610.35 1427.99 2606.76 1427.89 2606.74C1426.88 2606.41 1426.35 2605.34 1426.64 2604.36C1426.97 2603.36 1428.01 2602.81 1429.02 2603.12C1429.13 2603.14 1440.48 2606.81 1457.08 2614.39C1460.13 2615.79 1463.22 2617.25 1466.27 2618.76C1482.69 2626.84 1498.22 2635.93 1512.38 2645.8C1521.96 2652.45 1531 2659.5 1539.22 2666.79C1539.83 2667.34 1540.02 2668.18 1539.73 2668.93C1538.99 2670.69 1538.4 2672.51 1537.95 2674.36C1533.16 2694.1 1545.33 2714.06 1565.09 2718.86C1584.84 2723.66 1604.82 2711.5 1609.61 2691.76C1614.4 2672.02 1602.22 2652.08 1582.47 2647.29C1576.34 2645.8 1569.91 2645.91 1563.86 2647.6C1563.16 2647.8 1562.39 2647.56 1561.93 2647.02C1553.75 2637.67 1543.91 2628.62 1532.71 2620.1C1505.31 2599.32 1474.49 2585.35 1453.45 2577.28C1445.87 2574.39 1439.71 2572.32 1435.89 2571.08C1434.89 2570.75 1434.35 2569.68 1434.65 2568.68C1434.98 2567.68 1436.05 2567.14 1437.06 2567.44C1440.94 2568.7 1447.15 2570.77 1454.8 2573.71C1476.08 2581.86 1507.26 2596 1535.02 2617.05C1546.07 2625.45 1555.83 2634.39 1564.01 2643.6C1570.34 2642.04 1577 2642.01 1583.37 2643.55C1605.17 2648.85 1618.59 2670.85 1613.3 2692.63C1608.01 2714.41 1586 2727.81 1564.2 2722.51L1564.19 2722.57Z" fill="#EE7A3A"/>
<path d="M1435.84 2571.07C1435.84 2571.07 1435.76 2571.05 1435.7 2571.04C1430.81 2569.48 1427.96 2568.7 1427.93 2568.69C1426.91 2568.45 1426.31 2567.39 1426.59 2566.38C1426.83 2565.36 1427.86 2564.75 1428.91 2565.03C1429.01 2565.06 1431.87 2565.84 1436.86 2567.45C1437.86 2567.78 1438.4 2568.85 1438.1 2569.85C1437.78 2570.8 1436.79 2571.36 1435.85 2571.13L1435.84 2571.07Z" fill="#EE7A3A"/>
<path d="M1219.83 2612.67C1219.51 2612.59 1219.18 2612.43 1218.93 2612.17C1216.83 2610.04 1215.02 2607.64 1213.55 2605.03C1205.83 2591.33 1209.56 2575.96 1209.72 2575.29C1209.97 2574.27 1211.03 2573.65 1212.02 2573.92C1213.04 2574.17 1213.65 2575.19 1213.4 2576.21C1213.36 2576.38 1209.89 2590.8 1216.85 2603.16C1218.16 2605.5 1219.75 2607.62 1221.63 2609.5C1222.36 2610.24 1222.35 2611.44 1221.6 2612.19C1221.11 2612.67 1220.42 2612.84 1219.8 2612.69L1219.83 2612.67Z" fill="#EE7A3A"/>
<path d="M1510.87 2649.24C1509.87 2649 1509.26 2648.02 1509.44 2647.02C1509.61 2646.21 1513.61 2627.04 1527.51 2619.27C1529.32 2618.26 1531.25 2617.47 1533.23 2616.93C1534.23 2616.66 1535.28 2617.26 1535.55 2618.29C1535.81 2619.29 1535.22 2620.34 1534.19 2620.6C1532.51 2621.05 1530.87 2621.7 1529.36 2622.56C1516.94 2629.5 1513.18 2647.56 1513.14 2647.74C1512.94 2648.78 1511.93 2649.44 1510.9 2649.22C1510.9 2649.22 1510.85 2649.21 1510.82 2649.2L1510.87 2649.24Z" fill="#EE7A3A"/>
<path d="M1483.17 2718.31C1472.31 2715.67 1463.09 2710.13 1455.76 2701.78C1455.07 2700.99 1455.13 2699.78 1455.92 2699.09C1456.72 2698.41 1457.93 2698.47 1458.62 2699.26C1466.22 2707.91 1476.03 2713.33 1487.72 2715.38C1488.75 2715.57 1489.46 2716.54 1489.26 2717.57C1489.1 2718.61 1488.1 2719.31 1487.07 2719.11C1485.76 2718.88 1484.46 2718.62 1483.17 2718.31Z" fill="#EE7A3A"/>
<path d="M1456.75 2702.37C1456.38 2702.28 1456.05 2702.08 1455.78 2701.79C1445.76 2690.43 1442.94 2678.02 1442.81 2677.48C1442.58 2676.46 1443.22 2675.45 1444.27 2675.22C1445.3 2674.99 1446.31 2675.63 1446.54 2676.68C1446.57 2676.89 1449.31 2688.7 1458.64 2699.27C1459.33 2700.06 1459.27 2701.27 1458.47 2701.96C1458 2702.39 1457.34 2702.51 1456.78 2702.37L1456.75 2702.37Z" fill="#EE7A3A"/>
<path d="M1447.65 2752.15C1436.61 2749.47 1427.07 2744.31 1419.16 2736.7C1405.1 2723.19 1401.49 2707.01 1401.34 2706.32C1401.11 2705.3 1401.78 2704.29 1402.8 2704.06C1403.82 2703.85 1404.83 2704.49 1405.07 2705.52C1405.11 2705.7 1408.63 2721.31 1421.81 2733.96C1432.17 2743.92 1445.58 2749.43 1461.67 2750.35C1462.71 2750.4 1463.51 2751.31 1463.46 2752.35C1463.41 2753.39 1462.5 2754.19 1461.46 2754.14C1456.63 2753.85 1452.04 2753.19 1447.69 2752.13L1447.65 2752.15Z" fill="#EE7A3A"/>
<path d="M1420.01 2737.19C1419.31 2737.02 1418.73 2736.45 1418.58 2735.67C1418.38 2734.63 1419.07 2733.66 1420.12 2733.46C1441.94 2729.4 1450.4 2717.41 1453.67 2708.05C1455.19 2703.67 1455.3 2700.51 1455.31 2700.48C1455.34 2700.35 1455.32 2700.2 1455.34 2700.09C1455.59 2699.07 1456.63 2698.44 1457.65 2698.69C1458.56 2698.91 1459.18 2699.77 1459.1 2700.69C1459.06 2701.31 1458.86 2704.73 1457.26 2709.32C1454.33 2717.76 1445.68 2732.61 1420.83 2737.22C1420.56 2737.26 1420.28 2737.25 1420.03 2737.19L1420.01 2737.19Z" fill="#EE7A3A"/>
<path d="M1273.18 2705.6C1272.37 2705.41 1271.75 2704.69 1271.74 2703.8C1271.73 2703.35 1271.7 2702.91 1271.69 2702.48C1270.07 2670.01 1244.43 2663.3 1243.35 2663.04C1242.33 2662.79 1241.7 2661.75 1241.95 2660.73C1242.2 2659.71 1243.23 2659.08 1244.25 2659.33C1244.55 2659.4 1273.73 2666.88 1275.5 2702.27C1275.53 2702.73 1275.53 2703.19 1275.55 2703.68C1275.58 2704.73 1274.77 2705.59 1273.72 2705.62C1273.54 2705.63 1273.38 2705.59 1273.22 2705.55L1273.18 2705.6Z" fill="#EE7A3A"/>
<path d="M1316.76 2579.78C1314.8 2579.31 1312.8 2578.76 1310.84 2578.17C1310.84 2578.17 1310.78 2578.16 1310.76 2578.15C1305.21 2576.5 1299.72 2574.37 1294.5 2571.85C1291.36 2570.35 1288.22 2568.64 1285.17 2566.79C1246.96 2543.72 1226.12 2500.27 1232.03 2456.11C1232.56 2452.2 1233.31 2448.26 1234.25 2444.42C1241.51 2414.5 1261.06 2388.62 1287.89 2373.4C1310.5 2360.58 1337.04 2355.99 1362.58 2360.51C1365 2360.96 1367.39 2361.45 1369.67 2362.01C1377.6 2363.93 1385.27 2366.7 1392.53 2370.23C1415.12 2381.26 1433.56 2399.9 1444.48 2422.72C1455.53 2445.88 1458.26 2472.37 1452.21 2497.32C1447.93 2514.91 1439.39 2531.35 1427.51 2544.85C1425 2547.7 1422.3 2550.49 1419.48 2553.08C1391.81 2578.67 1353.41 2588.63 1316.8 2579.74L1316.76 2579.78ZM1311.81 2574.51C1311.81 2574.51 1311.87 2574.53 1311.89 2574.53C1313.83 2575.12 1315.75 2575.64 1317.66 2576.1C1353.03 2584.69 1390.12 2575.07 1416.85 2550.33C1419.57 2547.81 1422.18 2545.14 1424.61 2542.38C1436.09 2529.32 1444.36 2513.47 1448.48 2496.47C1460.39 2447.43 1436.16 2395.78 1390.84 2373.66C1383.84 2370.25 1376.41 2367.57 1368.75 2365.71C1366.54 2365.17 1364.24 2364.7 1361.89 2364.27C1337.22 2359.93 1311.58 2364.34 1289.73 2376.72C1263.43 2391.61 1245.05 2415.99 1237.92 2445.34C1237.02 2449.05 1236.3 2452.85 1235.81 2456.63C1230.09 2499.3 1250.24 2541.25 1287.15 2563.55C1290.11 2565.32 1293.12 2566.96 1296.19 2568.42C1301.23 2570.84 1306.49 2572.88 1311.84 2574.49L1311.81 2574.51Z" fill="#EE7A3A"/>
<path d="M1314.63 2460.35C1310.14 2459.26 1306.18 2456.68 1303.35 2452.98C1300.07 2448.69 1298.66 2443.37 1299.37 2437.99C1300.07 2432.62 1302.85 2427.86 1307.15 2424.58C1311.45 2421.3 1316.78 2419.86 1322.15 2420.6C1333.23 2422.07 1341.02 2432.29 1339.56 2443.37C1338.09 2454.45 1327.86 2462.26 1316.78 2460.76C1316.06 2460.67 1315.33 2460.52 1314.63 2460.35ZM1323.35 2424.67C1322.78 2424.54 1322.21 2424.43 1321.64 2424.34C1317.28 2423.77 1312.96 2424.91 1309.46 2427.59C1305.97 2430.27 1303.72 2434.13 1303.15 2438.48C1302.57 2442.84 1303.72 2447.15 1306.4 2450.65C1309.08 2454.14 1312.94 2456.39 1317.3 2456.96C1326.32 2458.16 1334.61 2451.81 1335.79 2442.83C1336.92 2434.43 1331.45 2426.61 1323.36 2424.65L1323.35 2424.67Z" fill="#EE7A3A"/>
<path d="M1317.16 2450.05C1315.01 2449.53 1313.14 2448.3 1311.78 2446.52C1310.2 2444.46 1309.54 2441.94 1309.87 2439.38C1310.59 2434.09 1315.45 2430.38 1320.74 2431.09C1323.3 2431.43 1325.57 2432.75 1327.15 2434.81C1328.73 2436.87 1329.39 2439.4 1329.06 2441.96C1328.72 2444.52 1327.4 2446.79 1325.34 2448.37C1323.28 2449.94 1320.75 2450.61 1318.19 2450.27C1317.83 2450.21 1317.5 2450.16 1317.15 2450.07L1317.16 2450.05ZM1320.85 2434.96C1320.64 2434.91 1320.45 2434.86 1320.23 2434.84C1318.68 2434.63 1317.13 2435.05 1315.87 2436C1314.62 2436.95 1313.83 2438.32 1313.62 2439.89C1313.42 2441.43 1313.84 2442.98 1314.78 2444.24C1315.73 2445.49 1317.13 2446.29 1318.68 2446.49C1320.22 2446.7 1321.78 2446.28 1323.03 2445.33C1324.28 2444.38 1325.07 2443.01 1325.28 2441.44C1325.49 2439.9 1325.07 2438.35 1324.12 2437.09C1323.3 2436.01 1322.14 2435.27 1320.85 2434.96Z" fill="#EE7A3A"/>
<path d="M1351.2 2464.48C1341.25 2462.07 1334.5 2452.47 1335.91 2442.11C1336.61 2436.74 1339.39 2431.98 1343.69 2428.7C1347.99 2425.42 1353.31 2424.01 1358.69 2424.72C1364.07 2425.43 1368.83 2428.21 1372.11 2432.5C1375.39 2436.8 1376.81 2442.12 1376.1 2447.49C1374.63 2458.57 1364.4 2466.35 1353.35 2464.89C1352.63 2464.8 1351.92 2464.66 1351.22 2464.49L1351.2 2464.48ZM1359.92 2428.8C1359.35 2428.67 1358.75 2428.55 1358.18 2428.47C1349.16 2427.27 1340.88 2433.59 1339.69 2442.61C1338.5 2451.62 1344.85 2459.9 1353.84 2461.09C1362.83 2462.28 1371.14 2455.96 1372.33 2446.95C1372.91 2442.59 1371.76 2438.28 1369.08 2434.78C1366.77 2431.78 1363.57 2429.69 1359.92 2428.8Z" fill="#EE7A3A"/>
<path d="M1353.7 2454.2C1348.96 2453.05 1345.75 2448.46 1346.41 2443.53C1346.75 2440.96 1348.07 2438.7 1350.13 2437.12C1352.19 2435.54 1354.71 2434.88 1357.28 2435.22C1359.84 2435.55 1362.11 2436.87 1363.69 2438.93C1365.27 2441 1365.94 2443.52 1365.6 2446.08C1364.88 2451.37 1360.03 2455.08 1354.73 2454.39C1354.4 2454.34 1354.04 2454.28 1353.72 2454.2L1353.7 2454.2ZM1357.36 2439.1C1357.15 2439.05 1356.96 2439.01 1356.74 2438.98C1355.19 2438.78 1353.64 2439.2 1352.38 2440.14C1351.13 2441.09 1350.34 2442.46 1350.13 2444.03C1349.7 2447.23 1351.96 2450.19 1355.16 2450.63C1356.7 2450.83 1358.26 2450.41 1359.51 2449.47C1360.77 2448.52 1361.56 2447.15 1361.77 2445.58C1361.97 2444.03 1361.55 2442.48 1360.6 2441.23C1359.78 2440.15 1358.62 2439.41 1357.33 2439.1L1357.36 2439.1Z" fill="#EE7A3A"/>
<path d="M1328.92 2493.49C1308.52 2488.54 1302.68 2469.82 1302.62 2469.61C1302.32 2468.6 1302.89 2467.54 1303.9 2467.25C1304.91 2466.95 1305.97 2467.52 1306.27 2468.51C1306.53 2469.34 1312.65 2488.66 1335.47 2490.7C1358.14 2492.73 1365.24 2476.74 1365.52 2476.07C1365.92 2475.11 1367.06 2474.65 1368.01 2475.05C1368.97 2475.45 1369.44 2476.56 1369.03 2477.55C1368.96 2477.73 1360.64 2496.75 1335.12 2494.48C1332.91 2494.29 1330.87 2493.93 1328.93 2493.46L1328.92 2493.49Z" fill="#EE7A3A"/>
<path d="M1460.96 2763.91C1460.48 2763.79 1460.07 2763.5 1459.78 2763.05C1459.66 2762.85 1456.76 2757.89 1460.26 2751.57C1460.77 2750.64 1461.39 2749.74 1462.11 2748.86C1465.99 2744.17 1471.43 2744.01 1474.76 2744.51C1474.49 2741.6 1474.68 2737.09 1477.45 2733.05C1480.06 2729.22 1484.46 2728.09 1487.85 2727.84C1487.46 2727.26 1487.05 2726.59 1486.71 2725.85C1485.62 2723.54 1485.33 2721.11 1485.81 2718.67C1485.98 2718 1486.12 2717.4 1486.24 2716.89C1488.29 2710.11 1493.55 2707.92 1493.77 2707.83C1494.74 2707.44 1495.85 2707.91 1496.24 2708.88C1496.63 2709.86 1496.17 2710.94 1495.21 2711.36C1495.03 2711.43 1491.39 2713.05 1489.89 2718.04C1489.76 2718.46 1489.66 2718.89 1489.55 2719.43C1489.24 2721.06 1489.44 2722.71 1490.17 2724.28C1491.36 2726.78 1493.46 2728.32 1493.49 2728.32C1494.21 2728.84 1494.5 2729.76 1494.16 2730.59C1493.82 2731.42 1492.96 2731.89 1492.09 2731.74C1492.01 2731.72 1483.86 2730.45 1480.6 2735.21C1477.17 2740.2 1478.93 2746.43 1478.94 2746.49C1479.15 2747.17 1478.94 2747.91 1478.42 2748.41C1477.9 2748.91 1477.12 2749.06 1476.47 2748.82C1476.18 2748.72 1469.2 2746.29 1465.05 2751.31C1464.48 2752.02 1463.97 2752.72 1463.6 2753.43C1461.2 2757.77 1463.01 2761 1463.06 2761.15C1463.58 2762.04 1463.27 2763.22 1462.37 2763.74C1461.94 2764.01 1461.42 2764.05 1460.96 2763.94L1460.96 2763.91Z" fill="#EE7A3A"/>
<path d="M1452.46 2576.44C1450.65 2573.13 1448.61 2569.91 1446.43 2566.84C1446.41 2566.81 1446.36 2566.77 1446.34 2566.71C1440.23 2558.12 1432.82 2550.66 1424.96 2545.16C1424.11 2544.56 1423.89 2543.37 1424.5 2542.52C1425.1 2541.67 1426.29 2541.45 1427.14 2542.05C1435.39 2547.81 1443.14 2555.64 1449.53 2564.61C1449.55 2564.64 1449.6 2564.68 1449.61 2564.74C1451.84 2567.87 1453.91 2571.19 1455.78 2574.6L1452.46 2576.44Z" fill="#EE7A3A"/>
<path d="M148.215 683.92C193.621 683.92 230.43 647.139 230.43 601.768C230.43 556.397 193.621 519.617 148.215 519.617C102.809 519.617 66 556.397 66 601.768C66 647.139 102.809 683.92 148.215 683.92Z" fill="white" stroke="#E3773B" stroke-width="5" stroke-miterlimit="10"/>
<path d="M148.216 666.995C184.267 666.995 213.493 637.792 213.493 601.768C213.493 565.745 184.267 536.542 148.216 536.542C112.165 536.542 82.9395 565.745 82.9395 601.768C82.9395 637.792 112.165 666.995 148.216 666.995Z" fill="#3C78BD"/>
<path d="M148.215 667.323C112.037 667.323 82.6094 637.918 82.6094 601.768C82.6094 565.618 112.037 536.214 148.215 536.214C184.392 536.214 213.82 565.618 213.82 601.768C213.82 637.918 184.392 667.323 148.215 667.323ZM148.215 536.845C112.391 536.845 83.2667 565.972 83.2667 601.743C83.2667 637.514 112.416 666.641 148.215 666.641C184.013 666.641 213.163 637.514 213.163 601.743C213.163 565.972 184.013 536.845 148.215 536.845Z" fill="#3C78BD"/>
<path d="M148.216 666.995C184.267 666.995 213.493 637.792 213.493 601.768C213.493 565.745 184.267 536.542 148.216 536.542C112.165 536.542 82.9395 565.745 82.9395 601.768C82.9395 637.792 112.165 666.995 148.216 666.995Z" fill="#EE7A3A"/>
<path d="M148.215 667.323C112.037 667.323 82.6094 637.918 82.6094 601.768C82.6094 565.618 112.037 536.214 148.215 536.214C184.392 536.214 213.82 565.618 213.82 601.768C213.82 637.918 184.392 667.323 148.215 667.323ZM148.215 536.845C112.391 536.845 83.2667 565.972 83.2667 601.743C83.2667 637.514 112.416 666.641 148.215 666.641C184.013 666.641 213.163 637.514 213.163 601.743C213.163 565.972 184.013 536.845 148.215 536.845Z" fill="#EE7A3A"/>
<path d="M180.599 569.408L141.691 595.251L154.711 608.261L180.599 569.408Z" fill="#F6B35A"/>
<path d="M115.83 634.103L154.713 608.26L141.693 595.25L115.83 634.103Z" fill="white"/>
<path d="M138.221 2768.35C183.627 2768.35 220.436 2731.57 220.436 2686.19C220.436 2640.82 183.627 2604.04 138.221 2604.04C92.8148 2604.04 56.0059 2640.82 56.0059 2686.19C56.0059 2731.57 92.8148 2768.35 138.221 2768.35Z" fill="white" stroke="#E3773B" stroke-width="5" stroke-miterlimit="10"/>
<path d="M196.545 2685.13C196.545 2685.13 196.545 2685.08 196.545 2685.06C196.545 2685.03 196.545 2684.98 196.545 2684.96C196.494 2683.21 196.393 2681.45 196.191 2679.68C194.446 2664.19 186.761 2650.32 174.575 2640.62C163.83 2632.06 150.684 2627.64 137.108 2627.92C137.108 2627.92 137.083 2627.92 137.057 2627.92C137.007 2627.92 136.956 2627.92 136.906 2627.92C135.161 2627.97 133.417 2628.07 131.647 2628.27C117.212 2629.91 104.596 2636.71 95.419 2646.61C95.2168 2646.76 95.0398 2646.94 94.8881 2647.17C94.8881 2647.19 94.8628 2647.22 94.8376 2647.24C85.2306 2657.93 79.5676 2672.1 79.871 2687.28C79.871 2687.31 79.871 2687.33 79.871 2687.36C79.871 2687.41 79.871 2687.46 79.871 2687.51C79.9215 2689.25 80.0227 2690.99 80.2249 2692.76C81.7418 2706.13 87.6829 2717.92 96.4303 2726.89C96.4303 2726.89 96.4303 2726.92 96.4556 2726.94C96.582 2727.12 96.7337 2727.25 96.8853 2727.37C102.473 2732.98 109.197 2737.43 116.605 2740.38C125.251 2743.84 134.858 2745.28 144.743 2744.17C159.179 2742.53 171.794 2735.73 180.971 2725.83C181.174 2725.68 181.35 2725.48 181.527 2725.27C181.527 2725.25 181.553 2725.22 181.578 2725.2C191.185 2714.51 196.848 2700.34 196.545 2685.16V2685.13ZM97.8713 2652.87C100.551 2654.62 103.433 2656.16 106.467 2657.47C103.888 2665.3 102.397 2674.27 102.296 2683.92L85.8627 2684.25C86.2924 2672.5 90.6914 2661.54 97.8713 2652.87ZM141.76 2714.94C148.889 2715.09 155.867 2716.28 162.238 2718.35C157.535 2729.17 150.431 2736.62 142.215 2738.21L141.76 2714.94ZM141.633 2708.98L141.254 2689.13L168.154 2688.59C168.052 2697.36 166.687 2705.6 164.361 2712.75C157.308 2710.4 149.622 2709.11 141.633 2708.98ZM141.128 2683.16L140.749 2663.31C148.712 2662.85 156.347 2661.26 163.3 2658.63C165.904 2665.68 167.597 2673.87 168.052 2682.63L141.153 2683.16H141.128ZM134.656 2657.45C127.526 2657.3 120.549 2656.11 114.178 2654.04C118.88 2643.22 125.984 2635.77 134.201 2634.18L134.656 2657.45ZM140.622 2657.32L140.167 2634.08C141.558 2634.28 142.923 2634.66 144.237 2635.19C150.836 2637.84 156.676 2644.26 160.948 2653.1C154.653 2655.45 147.752 2656.89 140.622 2657.32ZM108.591 2651.86C106.265 2650.85 104.065 2649.69 101.992 2648.4C106.265 2644.29 111.27 2640.9 116.807 2638.4C113.622 2642.09 110.841 2646.63 108.591 2651.84V2651.86ZM112.079 2659.62C119.133 2661.97 126.819 2663.26 134.807 2663.38L135.212 2683.26L108.313 2683.79C108.414 2675 109.779 2666.79 112.105 2659.62H112.079ZM135.313 2689.2L135.692 2709.06C127.729 2709.51 120.094 2711.1 113.141 2713.73C110.537 2706.68 108.843 2698.5 108.388 2689.73L135.288 2689.2H135.313ZM135.819 2715.02L136.274 2738.26C134.883 2738.06 133.518 2737.68 132.203 2737.15C125.605 2734.5 119.765 2728.08 115.492 2719.24C121.788 2716.89 128.689 2715.45 135.819 2715.02ZM167.85 2720.48C170.176 2721.49 172.376 2722.65 174.449 2723.94C170.176 2728.05 165.17 2731.44 159.634 2733.94C162.845 2730.25 165.6 2725.7 167.85 2720.5V2720.48ZM169.974 2714.87C172.553 2707.04 174.044 2698.07 174.145 2688.44L190.578 2688.11C190.148 2699.86 185.749 2710.8 178.57 2719.49C175.89 2717.75 172.982 2716.21 169.949 2714.87H169.974ZM190.452 2682.15L174.019 2682.48C173.539 2672.86 171.693 2663.94 168.811 2656.23C171.794 2654.79 174.626 2653.13 177.255 2651.26C184.485 2659.29 189.036 2669.35 190.275 2680.28C190.351 2680.92 190.401 2681.52 190.427 2682.15H190.452ZM172.957 2646.96C170.935 2648.33 168.76 2649.57 166.485 2650.68C164.033 2645.52 161.05 2641.08 157.712 2637.52C162.389 2639.38 166.839 2641.96 170.884 2645.19C171.592 2645.75 172.3 2646.36 172.957 2646.94V2646.96ZM86.0144 2690.16L102.447 2689.83C102.928 2699.46 104.773 2708.37 107.655 2716.08C104.672 2717.52 101.866 2719.19 99.2365 2721.03C92.2083 2713.22 87.4554 2703.22 86.1913 2692.03C86.1155 2691.4 86.0649 2690.79 86.0396 2690.16H86.0144ZM103.534 2725.33C105.557 2723.96 107.706 2722.72 109.981 2721.61C112.433 2726.71 115.366 2731.16 118.703 2734.72C113.116 2732.47 107.984 2729.29 103.509 2725.33H103.534Z" fill="#F6B35A"/>
<path d="M355.05 2785.27C352.521 2793.53 343.748 2798.16 335.481 2795.63L252.037 2769.98C243.777 2767.42 239.136 2758.68 241.665 2750.42L259.179 2693.48L266.97 2668.21L267.321 2667.05C269.25 2660.77 274.771 2656.58 280.923 2656.07C282.878 2655.9 284.906 2656.09 286.883 2656.71L370.351 2682.37C378.611 2684.93 383.252 2693.67 380.723 2701.93L355.067 2785.3L355.05 2785.27Z" fill="white" stroke="#E3773B" stroke-width="5" stroke-miterlimit="10"/>
<path d="M346.539 2735.16C341.932 2750.1 322.622 2757.42 303.385 2751.51C297.699 2749.79 292.689 2747.06 288.518 2743.73L271.319 2746.44L280.125 2734.38C276.139 2727.92 274.76 2720.61 276.872 2713.73C281.454 2698.78 300.788 2691.47 320.025 2697.37C339.263 2703.28 351.121 2720.2 346.515 2735.15L346.539 2735.16Z" fill="#EE7A3A"/>
<path d="M182.789 2527.81C186.02 2535.83 182.114 2544.94 174.095 2548.18L93.0986 2580.74C85.0705 2583.95 75.961 2580.07 72.7293 2572.06L50.52 2516.79L40.6717 2492.24L40.2149 2491.12C37.7636 2485.02 39.4209 2478.3 43.8803 2474.03C45.2904 2472.66 46.9881 2471.54 48.9179 2470.78L129.938 2438.21C137.966 2434.99 147.076 2438.87 150.307 2446.88L182.822 2527.83L182.789 2527.81Z" fill="white" stroke="#E3773B" stroke-width="5" stroke-miterlimit="10"/>
<path d="M122.707 2534.63C115.869 2537.41 109.054 2540.19 102.197 2542.92C98.3098 2544.5 94.3073 2544.79 90.2591 2543.63C85.501 2542.27 81.9737 2539.37 79.5556 2535.03C75.9143 2528.49 76.9471 2520.03 82.2442 2514.47C83.0469 2513.62 83.2078 2513.01 82.8168 2511.91C80.6422 2505.76 81.2948 2499.85 84.7615 2494.35C89.8292 2486.34 100.28 2483.18 109.013 2486.94C110.34 2487.52 111.63 2488.14 112.752 2489.02C113.233 2489.4 113.509 2489.34 113.887 2488.86C119.024 2482.3 129.551 2482.81 133.84 2491.08C134.49 2492.34 134.803 2493.71 134.909 2495.12C134.969 2495.8 135.233 2495.91 135.838 2495.86C142.27 2495.23 147.344 2497.64 150.979 2502.95C154.959 2508.78 154.127 2517.13 149.189 2522.31C147.486 2524.09 145.456 2525.41 143.184 2526.33C136.346 2529.11 129.532 2531.88 122.684 2534.64L122.707 2534.63Z" fill="#F6B35A"/>
<path d="M1587.62 760.272C1587.6 768.911 1580.54 775.884 1571.9 775.858L1484.6 775.505C1475.95 775.454 1468.97 768.431 1469 759.792L1469.25 700.224L1469.38 673.775V672.562C1469.4 665.994 1473.47 660.386 1479.21 658.113C1481.03 657.38 1483.03 656.976 1485.1 657.001L1572.43 657.355C1581.07 657.405 1588.05 664.428 1588.02 673.068L1587.65 760.297L1587.62 760.272Z" fill="white" stroke="#E3773B" stroke-width="5" stroke-miterlimit="10"/>
<path d="M1555.29 744.053H1555.26C1554.02 744.584 1552.61 744.331 1551.64 743.422L1528.49 721.394L1505.28 743.346C1503.94 744.609 1501.82 744.559 1500.55 743.22C1499.29 741.881 1499.34 739.759 1500.68 738.496L1523.63 716.771L1500.73 694.995C1499.39 693.732 1499.34 691.61 1500.6 690.271C1501.87 688.932 1503.99 688.882 1505.33 690.145L1528.49 712.173L1551.7 690.22C1552.66 689.311 1554.1 689.058 1555.31 689.589C1556.52 690.119 1557.33 691.332 1557.33 692.671L1557.26 741.022C1557.26 742.336 1556.47 743.548 1555.26 744.079L1555.29 744.053ZM1533.34 716.796L1550.61 733.216L1550.66 700.426L1533.34 716.796Z" fill="#EE7A3A"/>
<defs>
<filter id="filter0_d_37_774" x="458.068" y="162.705" width="755.795" height="258.659" filterUnits="userSpaceOnUse" color-interpolation-filters="sRGB">
<feFlood flood-opacity="0" result="BackgroundImageFix"/>
<feColorMatrix in="SourceAlpha" type="matrix" values="0 0 0 0 0 0 0 0 0 0 0 0 0 0 0 0 0 0 127 0" result="hardAlpha"/>
<feOffset dx="20" dy="19"/>
<feComposite in2="hardAlpha" operator="out"/>
<feColorMatrix type="matrix" values="0 0 0 0 0.929412 0 0 0 0 0.478431 0 0 0 0 0.227451 0 0 0 1 0"/>
<feBlend mode="normal" in2="BackgroundImageFix" result="effect1_dropShadow_37_774"/>
<feBlend mode="normal" in="SourceGraphic" in2="effect1_dropShadow_37_774" result="shape"/>
</filter>
</defs>
</svg>
