<svg width="1653" height="2908" viewBox="0 0 1653 2908" fill="none" xmlns="http://www.w3.org/2000/svg">
<g clip-path="url(#clip0_101_250)">
<rect width="1653" height="2908" fill="white"/>
<rect width="1653" height="2908" fill="white"/>
<rect x="1130" y="1251" width="88.356" height="20.53" transform="rotate(9 1130 1251)" fill="#FAF257" fill-opacity="0.45"/>
<rect x="639" y="1924" width="27.356" height="30.53" transform="rotate(-167 639 1924)" fill="#ED7A3A"/>
<rect x="1327" y="2641" width="70.356" height="28.53" transform="rotate(-74 1327 2641)" fill="#F6B25A" fill-opacity="0.35"/>
<rect x="462" y="2619" width="90.356" height="16.53" transform="rotate(100 462 2619)" fill="#ED7A3A" fill-opacity="0.35"/>
<rect x="1187" y="1130" width="42.356" height="18.53" transform="rotate(104 1187 1130)" fill="#F6B25A" fill-opacity="0.9"/>
<rect x="1076" y="2184" width="36.356" height="24.53" transform="rotate(91 1076 2184)" fill="#ED7A3A" fill-opacity="0.9"/>
<rect x="282" y="2411" width="33.356" height="30.53" transform="rotate(80 282 2411)" fill="#FAF257" fill-opacity="0.6"/>
<rect x="912" y="317" width="64.356" height="28.53" transform="rotate(46 912 317)" fill="#ED7A3A" fill-opacity="0.6"/>
<rect x="1156" y="871" width="56.356" height="26.53" transform="rotate(-123 1156 871)" fill="#F6B25A" fill-opacity="0.9"/>
<rect x="1571" y="367" width="85.356" height="18.53" transform="rotate(54 1571 367)" fill="#ED7A3A" fill-opacity="0.75"/>
<rect x="1457" y="381" width="35.356" height="30.53" transform="rotate(-142 1457 381)" fill="#F6B25A"/>
<rect x="249" y="1833" width="22.356" height="23.53" transform="rotate(-103 249 1833)" fill="#FAF257" fill-opacity="0.65"/>
<rect x="1395" y="1273" width="29.356" height="18.53" transform="rotate(-133 1395 1273)" fill="#F6B25A" fill-opacity="0.85"/>
<rect x="226" y="2803" width="30.356" height="28.53" transform="rotate(53 226 2803)" fill="#F6B25A" fill-opacity="0.85"/>
<rect x="662" y="819" width="63.356" height="28.53" transform="rotate(145 662 819)" fill="#FAF257" fill-opacity="0.65"/>
<rect x="222" y="715" width="33.356" height="32.53" transform="rotate(-37 222 715)" fill="#F6B25A" fill-opacity="0.45"/>
<rect x="1648" y="1444" width="60.356" height="19.53" transform="rotate(-15 1648 1444)" fill="#ED7A3A" fill-opacity="0.85"/>
<rect x="646" y="2625" width="34.356" height="25.53" transform="rotate(78 646 2625)" fill="#FAF257" fill-opacity="0.9"/>
<rect x="1397" y="265" width="72.356" height="33.53" transform="rotate(-109 1397 265)" fill="#FAF257" fill-opacity="0.75"/>
<rect x="1549" y="1707" width="79.356" height="16.53" transform="rotate(150 1549 1707)" fill="#FAF257"/>
<rect x="1339" y="2533" width="29.356" height="28.53" transform="rotate(64 1339 2533)" fill="#FAF257" fill-opacity="0.45"/>
<rect x="1644" y="2811" width="54.356" height="17.53" transform="rotate(-86 1644 2811)" fill="#F6B25A"/>
<rect x="956" y="1123" width="107.356" height="29.53" transform="rotate(121 956 1123)" fill="#F6B25A"/>
<rect x="1457" y="2544" width="99.356" height="30.53" transform="rotate(48 1457 2544)" fill="#FAF257" fill-opacity="0.65"/>
<rect x="1034" y="149" width="69.356" height="28.53" transform="rotate(-34 1034 149)" fill="#ED7A3A" fill-opacity="0.9"/>
<rect x="800" y="1229" width="57.356" height="20.53" transform="rotate(-50 800 1229)" fill="#FAF257" fill-opacity="0.35"/>
<rect x="210" y="2011" width="23.356" height="32.53" transform="rotate(-109 210 2011)" fill="#ED7A3A" fill-opacity="0.45"/>
<rect x="541" y="2123" width="100.356" height="29.53" transform="rotate(-116 541 2123)" fill="#ED7A3A" fill-opacity="0.9"/>
<rect x="1113" y="1238" width="104.356" height="29.53" transform="rotate(50 1113 1238)" fill="#F6B25A" fill-opacity="0.65"/>
<rect x="855" y="438" width="71.356" height="28.53" transform="rotate(-114 855 438)" fill="#ED7A3A"/>
<rect x="1622" y="2638" width="88.356" height="16.53" transform="rotate(-56 1622 2638)" fill="#ED7A3A"/>
<rect x="1169" y="746" width="73.356" height="22.53" transform="rotate(32 1169 746)" fill="#FAF257" fill-opacity="0.65"/>
<rect x="652" y="1246" width="74.356" height="28.53" transform="rotate(108 652 1246)" fill="#FAF257" fill-opacity="0.75"/>
<rect x="189" y="2533" width="64.356" height="22.53" transform="rotate(148 189 2533)" fill="#F6B25A"/>
<rect x="502" y="2664" width="70.356" height="28.53" transform="rotate(141 502 2664)" fill="#FAF257" fill-opacity="0.65"/>
<rect x="995" y="1820" width="97.356" height="19.53" transform="rotate(-87 995 1820)" fill="#F6B25A" fill-opacity="0.65"/>
<rect x="1389" y="898" width="25.356" height="31.53" transform="rotate(-52 1389 898)" fill="#FAF257" fill-opacity="0.35"/>
<rect x="1483" y="2070" width="21.356" height="30.53" transform="rotate(-80 1483 2070)" fill="#ED7A3A" fill-opacity="0.85"/>
<circle cx="1319.27" cy="358.27" r="21.27" fill="#FAF257" fill-opacity="0.35"/>
<circle cx="133.77" cy="1962.77" r="17.77" fill="#FAF257" fill-opacity="0.75"/>
<circle cx="1286.27" cy="2240.27" r="17.27" fill="#ED7A3A" fill-opacity="0.9"/>
<circle cx="700.27" cy="2185.27" r="19.27" fill="#ED7A3A" fill-opacity="0.75"/>
<circle cx="1445.77" cy="2436.77" r="10.77" fill="#FAF257" fill-opacity="0.65"/>
<circle cx="501.77" cy="578.77" r="21.77" fill="#F6B25A" fill-opacity="0.6"/>
<circle cx="502.27" cy="485.27" r="8.27" fill="#FAF257" fill-opacity="0.75"/>
<circle cx="1483.27" cy="1910.27" r="11.27" fill="#ED7A3A" fill-opacity="0.65"/>
<circle cx="1101.27" cy="858.27" r="12.27" fill="#FAF257" fill-opacity="0.6"/>
<circle cx="84.77" cy="346.77" r="15.77" fill="#FAF257"/>
<circle cx="880.27" cy="2208.27" r="7.27" fill="#FAF257" fill-opacity="0.35"/>
<circle cx="1112.27" cy="2448.27" r="19.27" fill="#FAF257" fill-opacity="0.85"/>
<circle cx="1356.27" cy="2641.27" r="11.27" fill="#F6B25A" fill-opacity="0.85"/>
<circle cx="781.27" cy="611.27" r="7.27" fill="#FAF257" fill-opacity="0.9"/>
<circle cx="194.27" cy="592.27" r="10.27" fill="#F6B25A" fill-opacity="0.35"/>
<circle cx="861.27" cy="673.27" r="16.27" fill="#FAF257" fill-opacity="0.9"/>
<circle cx="865.77" cy="1242.77" r="8.77" fill="#F6B25A"/>
<circle cx="601.77" cy="2627.77" r="8.77" fill="#F6B25A" fill-opacity="0.35"/>
<circle cx="975.27" cy="1406.27" r="12.27" fill="#FAF257" fill-opacity="0.35"/>
<circle cx="84.77" cy="2206.77" r="20.77" fill="#F6B25A"/>
<circle cx="338.27" cy="1374.27" r="17.27" fill="#F6B25A" fill-opacity="0.45"/>
<circle cx="503.77" cy="2630.77" r="21.77" fill="#FAF257" fill-opacity="0.6"/>
<circle cx="1074.77" cy="2305.77" r="21.77" fill="#ED7A3A" fill-opacity="0.9"/>
<circle cx="1241.77" cy="1155.77" r="12.77" fill="#F6B25A" fill-opacity="0.85"/>
<circle cx="1093.77" cy="2854.77" r="8.77" fill="#F6B25A"/>
<circle cx="1305.27" cy="1565.27" r="11.27" fill="#FAF257" fill-opacity="0.65"/>
<circle cx="614.27" cy="1649.27" r="11.27" fill="#F6B25A" fill-opacity="0.65"/>
<circle cx="647.77" cy="212.77" r="9.77" fill="#FAF257" fill-opacity="0.85"/>
<circle cx="812.77" cy="550.77" r="20.77" fill="#ED7A3A" fill-opacity="0.9"/>
<circle cx="1376.77" cy="1776.77" r="17.77" fill="#FAF257" fill-opacity="0.65"/>
<circle cx="1101.77" cy="470.77" r="20.77" fill="#ED7A3A" fill-opacity="0.75"/>
<circle cx="781.77" cy="159.77" r="17.77" fill="#F6B25A" fill-opacity="0.45"/>
<circle cx="1054.27" cy="1251.27" r="8.27" fill="#F6B25A" fill-opacity="0.45"/>
<circle cx="195.77" cy="2114.77" r="12.77" fill="#F6B25A" fill-opacity="0.6"/>
<circle cx="435.27" cy="37.27" r="12.27" fill="#FAF257" fill-opacity="0.75"/>
<circle cx="1210.27" cy="2695.27" r="12.27" fill="#F6B25A" fill-opacity="0.85"/>
<circle cx="1591.27" cy="2545.27" r="18.27" fill="#F6B25A" fill-opacity="0.65"/>
<circle cx="329.27" cy="2617.27" r="20.27" fill="#ED7A3A" fill-opacity="0.35"/>
<rect x="1171" y="773" width="75.356" height="31.53" transform="rotate(-161 1171 773)" fill="#FAF257" fill-opacity="0.35"/>
<rect x="1301" y="1086" width="108.356" height="29.53" transform="rotate(-124 1301 1086)" fill="#ED7A3A" fill-opacity="0.6"/>
<rect x="291" y="2074" width="26.356" height="21.53" transform="rotate(-19 291 2074)" fill="#FAF257" fill-opacity="0.6"/>
<rect x="1419" y="1997" width="39.356" height="22.53" transform="rotate(164 1419 1997)" fill="#FAF257"/>
<rect x="1214" y="1034" width="34.356" height="24.53" transform="rotate(-165 1214 1034)" fill="#FAF257" fill-opacity="0.45"/>
<rect x="668" y="1540" width="59.356" height="27.53" transform="rotate(-126 668 1540)" fill="#FAF257" fill-opacity="0.9"/>
<rect x="734" y="2860" width="21.356" height="22.53" transform="rotate(-39 734 2860)" fill="#FAF257" fill-opacity="0.6"/>
<rect x="187" y="1538" width="52.356" height="32.53" transform="rotate(82 187 1538)" fill="#F6B25A" fill-opacity="0.9"/>
<rect x="341" y="2054" width="110.356" height="16.53" transform="rotate(-87 341 2054)" fill="#F6B25A" fill-opacity="0.6"/>
<rect x="1541" y="216" width="33.356" height="30.53" transform="rotate(-22 1541 216)" fill="#ED7A3A" fill-opacity="0.45"/>
<rect x="363" y="223" width="59.356" height="30.53" transform="rotate(-136 363 223)" fill="#ED7A3A"/>
<rect x="496" y="601" width="72.356" height="26.53" transform="rotate(11 496 601)" fill="#ED7A3A" fill-opacity="0.6"/>
<rect x="1057" y="2884" width="27.356" height="19.53" transform="rotate(112 1057 2884)" fill="#ED7A3A" fill-opacity="0.85"/>
<rect x="488" y="2699" width="88.356" height="21.53" transform="rotate(-165 488 2699)" fill="#F6B25A" fill-opacity="0.45"/>
<rect x="576" y="2446" width="91.356" height="23.53" transform="rotate(163 576 2446)" fill="#ED7A3A" fill-opacity="0.75"/>
<rect x="1630" y="204" width="30.356" height="20.53" transform="rotate(99 1630 204)" fill="#FAF257" fill-opacity="0.45"/>
<rect x="17" y="1920" width="79.356" height="24.53" transform="rotate(96 17 1920)" fill="#ED7A3A"/>
<rect x="1161" y="2796" width="114.356" height="28.53" transform="rotate(-54 1161 2796)" fill="#ED7A3A" fill-opacity="0.65"/>
<rect x="1252" y="1817" width="30.356" height="30.53" transform="rotate(41 1252 1817)" fill="#ED7A3A" fill-opacity="0.35"/>
<rect x="636" y="2326" width="46.356" height="17.53" fill="#FAF257" fill-opacity="0.45"/>
<rect x="1632" y="662" width="110.356" height="22.53" transform="rotate(-162 1632 662)" fill="#F6B25A" fill-opacity="0.6"/>
<rect x="1540" y="1567" width="113.356" height="16.53" transform="rotate(123 1540 1567)" fill="#FAF257" fill-opacity="0.65"/>
<rect x="1326" y="1618" width="109.356" height="31.53" transform="rotate(-102 1326 1618)" fill="#ED7A3A" fill-opacity="0.65"/>
<rect x="1631" y="2215" width="111.356" height="26.53" transform="rotate(-17 1631 2215)" fill="#ED7A3A" fill-opacity="0.6"/>
<rect x="1019" y="2544" width="59.356" height="23.53" transform="rotate(-54 1019 2544)" fill="#ED7A3A" fill-opacity="0.85"/>
<rect x="220" y="795" width="100.356" height="30.53" transform="rotate(79 220 795)" fill="#FAF257"/>
<rect x="1496" y="1100" width="21.356" height="30.53" transform="rotate(-145 1496 1100)" fill="#FAF257" fill-opacity="0.45"/>
<rect x="1127" y="1539" width="102.356" height="21.53" transform="rotate(49 1127 1539)" fill="#FAF257" fill-opacity="0.35"/>
<rect x="181" y="2701" width="102.356" height="30.53" transform="rotate(13 181 2701)" fill="#ED7A3A" fill-opacity="0.35"/>
<rect x="1489" y="1046" width="92.356" height="30.53" transform="rotate(-4 1489 1046)" fill="#ED7A3A"/>
<rect x="1524" y="884" width="25.356" height="22.53" transform="rotate(-3 1524 884)" fill="#ED7A3A" fill-opacity="0.6"/>
<rect x="245" y="2410" width="56.356" height="18.53" transform="rotate(-163 245 2410)" fill="#ED7A3A" fill-opacity="0.65"/>
<rect x="716" y="231" width="38.356" height="26.53" transform="rotate(64 716 231)" fill="#FAF257" fill-opacity="0.85"/>
<rect x="1285" y="432" width="60.356" height="23.53" transform="rotate(-74 1285 432)" fill="#ED7A3A" fill-opacity="0.65"/>
<rect x="194" y="171" width="102.356" height="29.53" transform="rotate(140 194 171)" fill="#ED7A3A" fill-opacity="0.65"/>
<rect x="34" y="2803" width="99.356" height="31.53" transform="rotate(-63 34 2803)" fill="#F6B25A" fill-opacity="0.45"/>
<rect x="812" y="775" width="98.356" height="22.53" transform="rotate(6 812 775)" fill="#F6B25A" fill-opacity="0.9"/>
<rect x="744" y="1205" width="44.356" height="23.53" transform="rotate(43 744 1205)" fill="#ED7A3A"/>
<circle cx="1105.77" cy="2009.77" r="18.77" fill="#FAF257" fill-opacity="0.75"/>
<circle cx="411.77" cy="968.77" r="17.77" fill="#ED7A3A" fill-opacity="0.85"/>
<circle cx="430.27" cy="835.27" r="21.27" fill="#F6B25A" fill-opacity="0.6"/>
<circle cx="727.27" cy="292.27" r="8.27" fill="#FAF257" fill-opacity="0.85"/>
<circle cx="758.77" cy="485.77" r="20.77" fill="#ED7A3A" fill-opacity="0.6"/>
<circle cx="547.27" cy="2498.27" r="9.27" fill="#FAF257"/>
<circle cx="1129.77" cy="2109.77" r="18.77" fill="#FAF257" fill-opacity="0.75"/>
<circle cx="952.27" cy="2741.27" r="13.27" fill="#FAF257" fill-opacity="0.85"/>
<circle cx="1402.27" cy="465.27" r="7.27" fill="#F6B25A"/>
<circle cx="1093.27" cy="2056.27" r="20.27" fill="#F6B25A" fill-opacity="0.45"/>
<circle cx="684.27" cy="1448.27" r="19.27" fill="#ED7A3A" fill-opacity="0.65"/>
<circle cx="1150.77" cy="2383.77" r="17.77" fill="#FAF257" fill-opacity="0.9"/>
<circle cx="1514.27" cy="2793.27" r="9.27" fill="#FAF257" fill-opacity="0.75"/>
<circle cx="582.77" cy="1007.77" r="18.77" fill="#FAF257" fill-opacity="0.65"/>
<circle cx="668.77" cy="2016.77" r="8.77" fill="#FAF257" fill-opacity="0.6"/>
<circle cx="1589.27" cy="698.27" r="21.27" fill="#ED7A3A" fill-opacity="0.75"/>
<circle cx="1089.77" cy="691.77" r="11.77" fill="#ED7A3A" fill-opacity="0.9"/>
<circle cx="1198.77" cy="2088.77" r="15.77" fill="#F6B25A" fill-opacity="0.6"/>
<circle cx="280.27" cy="2313.27" r="17.27" fill="#FAF257" fill-opacity="0.35"/>
<circle cx="113.27" cy="449.27" r="11.27" fill="#ED7A3A" fill-opacity="0.65"/>
<circle cx="653.77" cy="991.77" r="13.77" fill="#F6B25A" fill-opacity="0.45"/>
<circle cx="1541.77" cy="28.77" r="12.77" fill="#FAF257" fill-opacity="0.65"/>
<circle cx="1604.27" cy="2612.27" r="15.27" fill="#FAF257" fill-opacity="0.45"/>
<circle cx="441.77" cy="1128.77" r="12.77" fill="#FAF257"/>
<circle cx="1294.27" cy="459.27" r="13.27" fill="#ED7A3A" fill-opacity="0.65"/>
<circle cx="272.27" cy="825.27" r="13.27" fill="#F6B25A" fill-opacity="0.75"/>
<circle cx="142.77" cy="841.77" r="14.77" fill="#FAF257"/>
<circle cx="1365.77" cy="835.77" r="21.77" fill="#F6B25A" fill-opacity="0.35"/>
<circle cx="1562.77" cy="1380.77" r="17.77" fill="#FAF257"/>
<circle cx="130.27" cy="2735.27" r="17.27" fill="#FAF257" fill-opacity="0.6"/>
<circle cx="811.77" cy="1960.77" r="14.77" fill="#FAF257" fill-opacity="0.75"/>
<circle cx="764.27" cy="1581.27" r="14.27" fill="#ED7A3A" fill-opacity="0.75"/>
<circle cx="88.77" cy="1701.77" r="19.77" fill="#FAF257" fill-opacity="0.35"/>
<circle cx="703.27" cy="891.27" r="19.27" fill="#F6B25A" fill-opacity="0.9"/>
<circle cx="1487.27" cy="690.27" r="13.27" fill="#FAF257" fill-opacity="0.6"/>
<circle cx="1550.27" cy="1417.27" r="7.27" fill="#F6B25A" fill-opacity="0.6"/>
<circle cx="1228.77" cy="161.77" r="15.77" fill="#F6B25A" fill-opacity="0.85"/>
<circle cx="1009.77" cy="1615.77" r="9.77" fill="#F6B25A"/>
</g>
<defs>
<clipPath id="clip0_101_250">
<rect width="1653" height="2908" fill="white"/>
</clipPath>
</defs>
</svg>
