<svg width="613" height="604" viewBox="0 0 613 604" fill="none" xmlns="http://www.w3.org/2000/svg">
<mask id="path-1-outside-1_404_81" maskUnits="userSpaceOnUse" x="0" y="0" width="613" height="604" fill="black">
<rect fill="white" width="613" height="604"/>
<path fill-rule="evenodd" clip-rule="evenodd" d="M7 2C4.23858 2 2 4.23857 2 6.99999V596.978C2 599.739 4.23858 601.978 7 601.978H606C608.761 601.978 611 599.739 611 596.978V7C611 4.23858 608.761 2 606 2H7ZM40.8333 35.8333C38.0719 35.8333 35.8333 38.0719 35.8333 40.8333V434.578C35.8333 437.339 38.0719 439.578 40.8333 439.578H572.167C574.928 439.578 577.167 437.339 577.167 434.578V40.8333C577.167 38.0719 574.928 35.8333 572.167 35.8333H40.8333Z"/>
</mask>
<path fill-rule="evenodd" clip-rule="evenodd" d="M7 2C4.23858 2 2 4.23857 2 6.99999V596.978C2 599.739 4.23858 601.978 7 601.978H606C608.761 601.978 611 599.739 611 596.978V7C611 4.23858 608.761 2 606 2H7ZM40.8333 35.8333C38.0719 35.8333 35.8333 38.0719 35.8333 40.8333V434.578C35.8333 437.339 38.0719 439.578 40.8333 439.578H572.167C574.928 439.578 577.167 437.339 577.167 434.578V40.8333C577.167 38.0719 574.928 35.8333 572.167 35.8333H40.8333Z" fill="white"/>
<path d="M4 6.99999C4 5.34314 5.34314 4 7 4V0C3.13401 0 0 3.13399 0 6.99999H4ZM4 596.978V6.99999H0V596.978H4ZM7 599.978C5.34315 599.978 4 598.635 4 596.978H0C0 600.844 3.134 603.978 7 603.978V599.978ZM606 599.978H7V603.978H606V599.978ZM609 596.978C609 598.635 607.657 599.978 606 599.978V603.978C609.866 603.978 613 600.844 613 596.978H609ZM609 7V596.978H613V7H609ZM606 4C607.657 4 609 5.34315 609 7H613C613 3.134 609.866 0 606 0V4ZM7 4H606V0H7V4ZM37.8333 40.8333C37.8333 39.1765 39.1765 37.8333 40.8333 37.8333V33.8333C36.9673 33.8333 33.8333 36.9673 33.8333 40.8333H37.8333ZM37.8333 434.578V40.8333H33.8333V434.578H37.8333ZM40.8333 437.578C39.1765 437.578 37.8333 436.235 37.8333 434.578H33.8333C33.8333 438.444 36.9673 441.578 40.8333 441.578V437.578ZM572.167 437.578H40.8333V441.578H572.167V437.578ZM575.167 434.578C575.167 436.235 573.823 437.578 572.167 437.578V441.578C576.033 441.578 579.167 438.444 579.167 434.578H575.167ZM575.167 40.8333V434.578H579.167V40.8333H575.167ZM572.167 37.8333C573.823 37.8333 575.167 39.1765 575.167 40.8333H579.167C579.167 36.9673 576.033 33.8333 572.167 33.8333V37.8333ZM40.8333 37.8333H572.167V33.8333H40.8333V37.8333Z" fill="#ED7A3A" mask="url(#path-1-outside-1_404_81)"/>
</svg>
